<?xml version="1.0" encoding="utf-8"?>
<svg xmlns="http://www.w3.org/2000/svg"
	xmlns:xlink="http://www.w3.org/1999/xlink"
	width="18px" height="17px">
<path fill="rgb(67,69,73)" fill-rule="evenodd" d="M 5.19 3.7C 5.19 3.7 2.86 5.5 2.86 5.5 2.86 5.5 2.59 5.5 2.59 5.5 1.66 5.5 0.9 6.25 0.9 7.18 0.9 7.18 0.9 10.1 0.9 10.1 0.9 11.03 1.66 11.78 2.59 11.78 2.59 11.78 2.88 11.78 2.88 11.78 2.88 11.78 5.19 13.56 5.19 13.56 6.46 14.54 8.04 14.13 8.04 12.84 8.04 12.84 8.04 4.28 8.04 4.28 8.04 2.99 6.46 2.72 5.19 3.7ZM 12.41 3.81C 12.15 3.37 11.4 3.23 10.96 3.49 10.53 3.75 10.36 4.32 10.61 4.75 10.63 4.79 13.09 8.83 10.59 12.4 10.38 12.7 10.51 13.14 10.68 13.44 10.68 13.44 10.72 13.44 10.72 13.44 10.78 13.55 10.82 13.59 10.93 13.67 11.34 13.96 11.97 13.92 12.26 13.51 15.44 8.98 12.53 4.02 12.41 3.81ZM 15.73 1.31C 15.42 0.79 14.74 0.62 14.22 0.93 13.7 1.24 13.53 1.91 13.84 2.44 13.88 2.5 17.72 9.05 13.72 14.75 13.46 15.11 13.46 15.58 13.66 15.93 13.74 16.07 13.85 16.19 13.98 16.28 14.48 16.63 15.17 16.51 15.51 16.02 20.33 9.16 15.92 1.63 15.73 1.31Z"/>
</svg>