<?xml version="1.0" encoding="utf-8"?>
<svg xmlns="http://www.w3.org/2000/svg"
	xmlns:xlink="http://www.w3.org/1999/xlink"
	width="18px" height="19px">
<path fill="rgb(255,255,255)" fill-rule="evenodd" d="M 9 0.73C 4.09 0.73 0.1 4.71 0.1 9.62 0.1 14.54 4.09 18.52 9 18.52 13.91 18.52 17.9 14.54 17.9 9.62 17.9 4.71 13.91 0.73 9 0.73ZM 2.39 9.62C 2.39 5.97 5.35 3.01 9 3.01 10.41 3.01 11.72 3.46 12.79 4.21 12.79 4.21 11 6.01 11 6.01 10.85 5.11 9.65 4.95 8.66 5.71 8.66 5.71 6.74 7.2 6.74 7.2 6.74 7.2 6.51 7.2 6.51 7.2 5.74 7.2 5.12 7.83 5.12 8.59 5.12 8.59 5.12 11 5.12 11 5.12 11.26 5.19 11.49 5.31 11.69 5.31 11.69 3.59 13.41 3.59 13.41 2.83 12.34 2.39 11.04 2.39 9.62ZM 9 16.24C 7.59 16.24 6.28 15.79 5.21 15.04 5.21 15.04 7.37 12.87 7.37 12.87 7.37 12.87 8.66 13.87 8.66 13.87 9.72 14.68 11.03 14.34 11.03 13.27 11.03 13.27 11.03 9.22 11.03 9.22 11.03 9.22 14.41 5.83 14.41 5.83 15.17 6.9 15.61 8.21 15.61 9.62 15.61 13.28 12.65 16.24 9 16.24Z"/>
</svg>