<?xml version="1.0" encoding="utf-8"?>
<!-- Generator: Adobe Illustrator 16.0.0, SVG Export Plug-In . SVG Version: 6.00 Build 0)  -->
<!DOCTYPE svg PUBLIC "-//W3C//DTD SVG 1.1//EN" "http://www.w3.org/Graphics/SVG/1.1/DTD/svg11.dtd">
<svg version="1.1" id="Layer_1" xmlns="http://www.w3.org/2000/svg" xmlns:xlink="http://www.w3.org/1999/xlink" x="0px" y="0px"
	 width="100px" height="100px" viewBox="0 0 100 100" enable-background="new 0 0 100 100" xml:space="preserve">
<path opacity="0.2" fill="#ED901E" enable-background="new    " d="M17.044,26.658l-2.857-2.857c0,0-1.16-1.261-2.395,0.123
	c-5.969,6.558-9.613,15.27-9.613,24.815c0,9.384,3.58,17.909,9.311,24.479c1.584,1.815,2.745,0.408,2.745,0.408
	s1.723-1.725,2.979-2.979c0.995-0.894,0.367-2.232-0.068-2.729c-4.493-5.131-7.218-11.842-7.218-19.182
	c0-7.398,2.713-14.21,7.327-19.305C18.499,28.061,17.044,26.658,17.044,26.658z M28.924,36.516c0,0-1.977-1.976-3.249-3.247
	c-0.844-0.849-1.917-0.145-2.324,0.331c-3.485,4.078-5.591,9.368-5.591,15.14c0,5.758,2.13,11.004,5.564,15.107
	c1.216,1.454,2.449,0.266,2.449,0.266l3.026-3.026c0,0,1.31-1.11,0.125-2.621c-2.137-2.669-3.416-6.05-3.416-9.726
	c0-3.771,1.364-7.219,3.584-9.934C30.159,37.504,28.924,36.516,28.924,36.516z M87.752,23.924c-1.232-1.384-2.395-0.123-2.395-0.123
	L82.5,26.658c0,0-1.453,1.402-0.21,2.776c4.614,5.095,7.327,11.907,7.327,19.305c0,7.34-2.725,14.051-7.219,19.182
	c-0.435,0.496-1.062,1.836-0.067,2.729c1.255,1.255,2.978,2.979,2.978,2.979s1.162,1.407,2.746-0.408
	c5.73-6.57,9.312-15.097,9.312-24.479C97.365,39.194,93.721,30.482,87.752,23.924z M73.869,33.269
	c-1.271,1.271-3.249,3.247-3.249,3.247s-1.233,0.988-0.169,2.29c2.221,2.715,3.584,6.163,3.584,9.934
	c0,3.676-1.279,7.057-3.416,9.726c-1.186,1.511,0.125,2.621,0.125,2.621l3.027,3.026c0,0,1.23,1.188,2.447-0.266
	c3.434-4.104,5.564-9.351,5.564-15.107c0-5.772-2.105-11.062-5.592-15.14C75.787,33.124,74.713,32.419,73.869,33.269z"/>
</svg>
